<svg id="Layer_1" data-name="Layer 1" xmlns="http://www.w3.org/2000/svg" viewBox="0 0 300 169"><defs><style>.cls-1{fill:#f4f4f4;}.cls-2{fill:#bebdba;}</style></defs><title>camera1</title><rect class="cls-1" width="300" height="169"/><path class="cls-2" d="M149.41,80.89a6.51,6.51,0,1,1-4.59,1.91A6.26,6.26,0,0,1,149.41,80.89ZM165.3,71.5a5.78,5.78,0,0,1,5.78,5.78V97.5a5.78,5.78,0,0,1-5.78,5.78H133.53a5.78,5.78,0,0,1-5.78-5.78V77.28a5.78,5.78,0,0,1,5.78-5.78h5.05l1.15-3.07a4.19,4.19,0,0,1,1.57-1.91,4,4,0,0,1,2.34-.8h11.55a4,4,0,0,1,2.34.8,4.19,4.19,0,0,1,1.57,1.91l1.15,3.07h5.05Zm-15.89,26a10.13,10.13,0,1,0-7.14-3A9.73,9.73,0,0,0,149.41,97.5Z" transform="translate(0.59)"/></svg>